<svg xmlns="http://www.w3.org/2000/svg" xmlns:xlink="http://www.w3.org/1999/xlink" width="224" zoomAndPan="magnify" viewBox="0 0 168 42" height="56" preserveAspectRatio="xMidYMid meet" version="1.0"><defs><g/><clipPath id="4fc59c5be3"><path d="M 4.734375 10.980469 L 36.160156 10.980469 L 36.160156 30.042969 L 4.734375 30.042969 Z M 4.734375 10.980469 " clip-rule="nonzero"/></clipPath><clipPath id="e3d38e261f"><path d="M 20.457031 10.980469 C 11.816406 10.980469 4.808594 15.246094 4.808594 20.511719 C 4.808594 25.777344 11.816406 30.042969 20.457031 30.042969 C 29.097656 30.042969 36.101562 25.777344 36.101562 20.511719 C 36.101562 15.246094 29.097656 10.980469 20.457031 10.980469 Z M 20.457031 10.980469 " clip-rule="nonzero"/></clipPath><clipPath id="77a3e4dbda"><path d="M 14.117188 12.648438 L 26.570312 12.648438 L 26.570312 28.03125 L 14.117188 28.03125 Z M 14.117188 12.648438 " clip-rule="nonzero"/></clipPath></defs><g clip-path="url(#4fc59c5be3)"><g clip-path="url(#e3d38e261f)"><path fill="#209cef" d="M 4.808594 10.980469 L 36.085938 10.980469 L 36.085938 30.042969 L 4.808594 30.042969 Z M 4.808594 10.980469 " fill-opacity="1" fill-rule="nonzero"/></g></g><g clip-path="url(#77a3e4dbda)"><path stroke-linecap="butt" transform="matrix(0.009717, 0, 0, 0.009717, 14.11073, 12.645699)" fill-opacity="1" fill="#ffde56" fill-rule="evenodd" stroke-linejoin="miter" d="M 653.113267 1.487844 L 657.937287 1.487844 L 670.801342 8.321873 C 679.645379 13.145893 688.891418 17.969913 698.137457 22.793934 C 707.785498 27.617954 713.815523 30.833968 716.629535 32.441974 C 719.443547 33.64798 721.453556 34.853985 721.855557 34.853985 C 722.659561 35.255986 727.885583 38.069998 737.935625 42.894019 C 747.985668 48.120041 757.633709 52.542059 766.477746 56.562076 C 775.321783 60.582093 781.351809 62.994104 783.361817 64.60211 C 785.773828 65.808116 789.793845 67.818124 795.019867 69.828132 C 800.245889 72.240143 804.265906 74.250151 807.079918 75.456156 C 809.491928 76.662161 815.521953 79.476173 824.365991 83.49619 C 833.61203 87.516207 844.064074 91.938226 856.124125 97.164248 C 868.184176 101.988268 881.852234 107.616292 897.5303 113.646318 C 913.208366 119.676343 921.650402 122.490355 922.454405 122.892357 C 923.66041 123.294358 929.690436 125.304367 940.544482 128.922382 C 951.398528 132.540398 959.840563 135.354409 965.870589 137.364418 C 971.900614 139.374426 975.116628 140.580432 975.51863 140.580432 C 975.920631 140.580432 985.970674 143.394443 1006.070759 149.424469 C 1026.170844 155.454494 1038.632896 159.07251 1043.456917 160.680517 C 1048.682939 161.886522 1057.928978 163.89653 1071.999037 167.112544 C 1086.069097 169.926556 1098.129148 172.338566 1108.581192 174.348574 C 1119.033236 176.358583 1138.73132 179.976598 1168.479445 185.604622 C 1198.227571 190.830644 1216.317647 194.046658 1223.151676 194.850661 C 1229.583704 196.056666 1237.221736 197.262671 1246.065773 198.468676 C 1254.507809 199.674681 1263.351846 201.282688 1272.195884 202.488693 C 1280.637919 203.694698 1288.275952 205.302705 1294.305977 207.312714 L 1303.552016 210.126726 L 1301.944009 275.653003 C 1301.140006 319.069186 1298.325994 380.575446 1294.305977 460.171782 C 1290.687962 539.366117 1287.87395 588.008323 1286.667945 606.500401 C 1285.059938 624.992479 1283.04993 644.288561 1279.833916 664.388646 C 1277.019904 684.890732 1274.607894 700.166797 1272.999887 709.814838 C 1271.39188 719.86488 1268.97987 731.120928 1266.56786 743.180979 C 1263.753848 754.839028 1261.74384 764.88907 1260.135833 772.929104 C 1258.527826 780.969138 1256.517817 789.813176 1254.105807 799.461217 C 1251.693797 809.109257 1249.281787 819.1593 1246.467775 829.611344 C 1243.653763 839.661387 1240.437749 852.525441 1236.417732 866.997502 C 1232.397715 881.469563 1230.387707 889.911599 1229.985705 891.519606 C 1229.583704 893.127613 1226.769692 902.373652 1221.54367 919.659725 C 1216.317647 936.543796 1209.483619 955.437876 1201.443585 976.341964 C 1193.403551 997.648054 1188.981532 1009.306104 1187.373525 1012.120116 C 1186.16752 1014.532126 1184.157512 1020.160149 1180.941498 1028.200183 C 1178.127486 1035.838216 1171.695459 1050.310277 1162.047418 1070.410362 C 1152.399377 1090.912449 1145.565348 1104.580506 1141.545331 1111.816537 C 1137.525314 1119.454569 1131.495289 1130.308615 1123.053253 1145.58468 C 1115.013219 1160.458743 1110.591201 1168.498777 1109.787197 1169.30278 C 1108.983194 1170.508785 1105.76718 1175.332805 1100.541158 1184.578844 C 1095.315136 1193.422882 1090.089114 1201.864918 1085.265094 1209.100948 C 1080.441073 1216.73898 1076.421056 1222.769006 1073.607044 1226.789023 C 1070.793032 1230.80904 1067.175017 1236.839065 1062.350997 1244.075096 C 1057.526976 1251.713128 1053.104958 1257.743154 1049.888944 1262.567174 C 1046.270929 1267.391195 1042.652913 1272.617217 1039.4369 1277.441237 C 1035.818885 1282.265257 1033.004873 1285.883273 1030.592862 1289.099286 C 1028.582854 1292.3153 1026.572845 1295.129312 1025.36684 1297.13932 C 1023.758834 1299.55133 1020.944822 1303.169346 1017.326806 1308.395368 C 1013.306789 1313.219388 1009.688774 1318.44541 1006.070759 1323.269431 C 1002.854745 1328.093451 995.618715 1336.535487 984.764669 1348.595538 C 973.910623 1361.05759 967.880597 1367.891619 966.272591 1369.901628 C 964.664584 1371.509635 963.458579 1373.117641 961.850572 1374.323647 C 960.644567 1375.931653 955.820546 1380.755674 948.182514 1389.599711 C 940.14248 1398.041747 931.298443 1407.287786 922.052404 1416.533825 C 912.806365 1425.779864 906.776339 1431.80989 903.560325 1434.2219 C 900.746314 1436.63391 894.314286 1442.663935 883.460241 1452.311976 C 873.008196 1462.362019 864.164159 1470.000051 857.732132 1475.628075 C 851.300105 1481.6581 845.270079 1486.884122 839.642055 1491.708143 C 834.416033 1496.532163 826.778001 1503.366192 816.727958 1511.808228 C 807.079918 1520.250263 799.843887 1526.280289 795.82387 1529.094301 C 791.401851 1532.310314 786.175829 1536.732333 779.3418 1542.360357 C 772.507772 1547.586379 763.663734 1553.616404 752.809688 1560.450433 C 741.955642 1566.88246 734.719612 1571.304479 730.699595 1573.716489 C 727.08158 1576.1285 721.855557 1579.344513 715.825532 1583.36453 C 710.197508 1586.982545 706.579493 1589.394556 706.177491 1590.198559 C 705.373488 1591.002562 699.343462 1594.218576 688.489416 1599.8466 C 677.635371 1605.474624 668.389331 1609.896642 661.555303 1612.308652 L 651.103258 1616.328669 L 645.877236 1615.122664 C 642.661223 1613.916659 637.837202 1611.906651 631.003173 1608.690637 C 624.169145 1605.072622 617.335116 1601.856608 610.501087 1597.836591 C 603.667058 1594.218576 599.245039 1591.806566 597.637032 1590.600561 C 596.029026 1588.992554 592.813012 1586.982545 587.988992 1583.36453 C 583.164971 1580.148517 575.928941 1575.324496 565.878898 1569.294471 C 555.426854 1563.264445 548.592825 1558.842426 545.376811 1556.832418 C 541.758796 1554.420408 537.336777 1551.606396 531.708754 1547.586379 C 526.08073 1543.968364 518.844699 1537.938338 509.59866 1530.300306 C 500.754623 1522.260272 494.724597 1517.436251 491.910585 1514.62224 C 489.096574 1512.210229 483.066548 1507.386209 474.222511 1499.748177 C 465.378473 1492.110144 459.75045 1487.286124 456.936438 1484.874114 C 453.720424 1482.060102 449.700407 1478.442087 444.474385 1473.618066 C 439.248363 1468.392044 431.208329 1461.558015 421.158286 1452.311976 C 410.706242 1443.467939 404.676217 1438.241917 403.470212 1437.035912 C 402.264207 1435.829907 397.038184 1431.005886 388.596149 1422.965852 C 379.752111 1414.925818 374.124088 1409.699796 371.712077 1406.885784 C 369.300067 1404.071772 363.270042 1397.237743 353.622001 1387.187701 C 344.375962 1377.137658 336.73793 1368.695623 330.707904 1362.263596 C 325.07988 1355.831568 318.245851 1348.193536 311.411823 1339.7515 C 304.175792 1331.309465 298.547768 1324.073434 294.929753 1318.847412 C 290.909736 1313.219388 287.693722 1308.79737 284.87971 1305.179354 C 282.065698 1301.561339 279.653688 1298.747327 278.447683 1296.335317 C 277.241678 1294.325308 275.23167 1291.109295 272.417658 1287.893281 C 269.603646 1284.275266 266.387632 1280.255249 263.57362 1276.235232 C 260.759608 1272.215215 258.347598 1268.195198 256.33759 1264.577183 C 253.92558 1261.361169 251.915571 1258.145155 249.905563 1256.135147 C 247.895554 1253.723137 245.885546 1250.909125 244.277539 1248.095113 C 242.26753 1245.281101 240.659523 1242.869091 239.453518 1240.457081 C 238.247513 1238.04507 235.835503 1234.829057 233.021491 1230.407038 C 229.805478 1225.985019 226.187462 1220.356996 221.363442 1212.718963 C 216.539421 1205.080931 212.921406 1199.854909 210.911398 1196.236894 C 208.499388 1192.618878 206.087377 1188.598861 203.675367 1184.176843 C 201.263357 1179.754824 198.851347 1175.734807 196.841338 1172.116792 C 194.429328 1168.900778 192.017318 1164.47876 189.605308 1159.654739 C 186.791296 1154.428717 181.967275 1145.986681 175.133246 1133.92663 C 167.897216 1121.866579 163.877199 1115.032551 163.073195 1113.424544 C 161.86719 1111.816537 159.857182 1107.394518 156.641168 1100.560489 C 153.023153 1093.324459 149.405138 1086.088428 145.385121 1078.450396 C 141.365104 1070.812364 136.943085 1061.164323 132.119065 1049.104272 C 126.893043 1037.044221 122.471024 1026.190175 118.451007 1016.140132 C 114.43099 1006.09009 110.410973 994.834042 105.988954 983.175993 C 101.566936 971.115942 97.94892 961.0659 95.134908 953.427867 C 91.918895 945.789835 89.104883 936.945798 85.888869 926.895755 C 83.074857 916.845713 80.260845 908.403677 77.848835 901.569648 C 75.436825 894.735619 74.23082 891.117604 74.23082 890.715602 C 74.23082 890.313601 73.024815 885.48958 70.612805 875.841539 C 67.798793 866.5955 64.180777 852.123439 58.954755 832.023354 C 54.130735 811.923269 50.914721 799.461217 49.306715 793.833193 C 48.10071 788.607171 46.090701 778.95913 42.874687 764.88907 C 40.060676 750.819011 37.246664 738.356958 34.834653 727.502912 C 32.824645 716.648867 30.412635 703.784812 28.000625 688.910749 C 25.588614 674.438688 23.980608 661.574634 22.372601 651.12259 C 21.166596 640.268544 19.558589 619.364455 17.54858 588.410325 C 15.538572 557.456194 13.930565 532.532088 13.126562 512.834005 C 11.920557 493.537923 11.116553 475.045845 9.910548 456.955769 C 9.106545 438.865692 7.498538 405.499551 5.086528 356.455344 C 2.674517 307.411137 1.468512 270.828982 1.468512 247.110882 L 1.468512 210.930729 L 4.684526 209.322722 C 7.096536 208.116717 15.538572 206.50871 30.814636 204.0967 C 46.492703 201.68469 54.532737 200.478685 54.934738 200.076683 C 55.738742 199.674681 61.366766 198.468676 71.416808 196.860669 C 81.868852 195.252663 93.526902 193.644656 105.988954 191.634647 C 118.853009 189.624639 133.32507 186.810627 150.611143 183.996615 C 167.495214 181.182603 187.193297 177.162586 209.303391 172.338566 C 231.815486 167.916547 250.307564 163.494528 265.181627 159.876513 C 279.653688 156.258498 297.341763 151.434477 317.441848 145.00245 C 337.943935 138.570423 350.003986 134.952408 354.426004 133.344401 C 358.848023 132.138396 371.310076 127.716377 391.812162 120.078345 C 412.716251 112.440313 429.19832 106.008285 442.062375 100.380262 C 454.524427 95.15424 463.770467 91.134223 469.39849 89.124214 C 475.026514 86.712204 487.890568 80.682178 508.392655 71.436139 C 528.49274 61.788099 539.748788 56.562076 542.160798 55.356071 C 544.572808 54.150066 552.21084 50.532051 564.672893 44.502025 C 576.732944 38.472 585.978983 34.049981 592.009009 30.833968 C 598.039034 28.019956 606.079068 23.999939 616.129111 19.175918 C 626.179153 13.949896 632.209178 10.733883 635.02319 9.527878 C 637.837202 8.321873 639.847211 6.713866 641.857219 5.507861 C 643.867228 4.301856 645.475235 3.09585 646.68124 2.693849 L 647.887245 1.487844 Z M 653.113267 1.487844 " stroke="#000000" stroke-width="2" stroke-opacity="1" stroke-miterlimit="4"/></g><g fill="#cc0f35" fill-opacity="1"><g transform="translate(15.360864, 20.978065)"><g><path d="M 0.488281 0 L 1.5 0 L 1.5 -1.988281 L 3.105469 -1.988281 L 3.105469 0 L 4.117188 0 L 4.117188 -4.886719 L 3.105469 -4.886719 L 3.105469 -2.925781 L 1.5 -2.925781 L 1.5 -4.886719 L 0.488281 -4.886719 Z M 0.488281 0 "/></g></g></g><g fill="#cc0f35" fill-opacity="1"><g transform="translate(19.363874, 24.723542)"><g><path d="M 0.488281 0 L 1.5 0 L 1.5 -1.988281 L 3.105469 -1.988281 L 3.105469 0 L 4.117188 0 L 4.117188 -4.886719 L 3.105469 -4.886719 L 3.105469 -2.925781 L 1.5 -2.925781 L 1.5 -4.886719 L 0.488281 -4.886719 Z M 0.488281 0 "/></g></g></g><g fill="#cc0f35" fill-opacity="1"><g transform="translate(38.408441, 26.126648)"><g><path d="M 1.1875 0 L 3.648438 0 L 3.648438 -4.835938 L 7.550781 -4.835938 L 7.550781 0 L 10.007812 0 L 10.007812 -11.875 L 7.550781 -11.875 L 7.550781 -7.109375 L 3.648438 -7.109375 L 3.648438 -11.875 L 1.1875 -11.875 Z M 1.1875 0 "/></g></g></g><g fill="#cc0f35" fill-opacity="1"><g transform="translate(49.603364, 26.126648)"><g><path d="M 4.851562 0.203125 C 6.210938 0.203125 7.261719 -0.339844 8.09375 -1.253906 L 6.855469 -2.714844 C 6.277344 -2.15625 5.699219 -1.816406 4.953125 -1.816406 C 3.9375 -1.816406 3.1875 -2.441406 2.984375 -3.648438 L 8.414062 -3.648438 C 8.429688 -4.003906 8.429688 -4.292969 8.429688 -4.429688 C 8.429688 -7.140625 7.160156 -9.261719 4.5625 -9.261719 C 2.273438 -9.261719 0.59375 -7.292969 0.59375 -4.597656 L 0.59375 -4.445312 C 0.59375 -1.613281 2.441406 0.203125 4.851562 0.203125 Z M 2.96875 -5.242188 C 3.105469 -6.53125 3.679688 -7.277344 4.5625 -7.277344 C 5.460938 -7.277344 6.003906 -6.496094 6.105469 -5.242188 Z M 2.96875 -5.242188 "/></g></g></g><g fill="#cc0f35" fill-opacity="1"><g transform="translate(58.644114, 26.126648)"><g><path d="M 1.050781 0 L 3.460938 0 L 3.460938 -12.25 L 1.050781 -12.25 Z M 1.050781 0 "/></g></g></g><g fill="#cc0f35" fill-opacity="1"><g transform="translate(63.172971, 26.126648)"><g><path d="M 0.96875 2.5625 L 3.375 2.5625 L 3.375 -1.171875 C 3.886719 -0.492188 4.613281 0.167969 5.835938 0.167969 C 7.652344 0.167969 9.296875 -1.304688 9.296875 -4.410156 L 9.296875 -4.683594 C 9.296875 -7.785156 7.632812 -9.261719 5.835938 -9.261719 C 4.632812 -9.261719 3.902344 -8.601562 3.375 -7.835938 L 3.375 -9.09375 L 0.96875 -9.09375 Z M 5.125 -1.933594 C 4.121094 -1.933594 3.34375 -2.917969 3.34375 -4.460938 L 3.34375 -4.632812 C 3.34375 -6.175781 4.121094 -7.160156 5.125 -7.160156 C 6.125 -7.160156 6.886719 -6.175781 6.886719 -4.632812 L 6.886719 -4.460938 C 6.886719 -2.917969 6.125 -1.933594 5.125 -1.933594 Z M 5.125 -1.933594 "/></g></g></g><g fill="#cc0f35" fill-opacity="1"><g transform="translate(73.112705, 26.126648)"><g><path d="M 1 -10.058594 L 3.511719 -10.058594 L 3.511719 -12.25 L 1 -12.25 Z M 1.050781 0 L 3.460938 0 L 3.460938 -9.09375 L 1.050781 -9.09375 Z M 1.050781 0 "/></g></g></g><g fill="#cc0f35" fill-opacity="1"><g transform="translate(77.641563, 26.126648)"><g><path d="M 0.96875 0 L 3.375 0 L 3.375 -5.480469 C 3.375 -6.546875 3.902344 -7.089844 4.699219 -7.089844 C 5.511719 -7.089844 5.988281 -6.546875 5.988281 -5.480469 L 5.988281 0 L 8.398438 0 L 8.398438 -6.191406 C 8.398438 -8.074219 7.414062 -9.261719 5.71875 -9.261719 C 4.5625 -9.261719 3.902344 -8.601562 3.375 -7.871094 L 3.375 -9.09375 L 0.96875 -9.09375 Z M 0.96875 0 "/></g></g></g><g fill="#cc0f35" fill-opacity="1"><g transform="translate(86.936744, 26.126648)"><g><path d="M 4.480469 2.59375 C 6.023438 2.59375 7.175781 2.257812 7.941406 1.511719 C 8.617188 0.8125 8.972656 -0.21875 8.972656 -1.664062 L 8.972656 -9.09375 L 6.566406 -9.09375 L 6.566406 -7.921875 C 5.988281 -8.636719 5.277344 -9.261719 4.039062 -9.261719 C 2.257812 -9.261719 0.644531 -7.871094 0.644531 -5.003906 L 0.644531 -4.953125 C 0.644531 -2.085938 2.238281 -0.679688 4.039062 -0.679688 C 5.257812 -0.679688 5.972656 -1.304688 6.582031 -2.105469 L 6.582031 -1.527344 C 6.582031 -0.0664062 5.851562 0.628906 4.34375 0.628906 C 3.394531 0.628906 2.492188 0.375 1.765625 -0.0351562 L 1.019531 1.832031 C 2.070312 2.324219 3.207031 2.59375 4.480469 2.59375 Z M 4.816406 -2.75 C 3.800781 -2.75 3.054688 -3.597656 3.054688 -4.96875 L 3.054688 -4.988281 C 3.054688 -6.328125 3.800781 -7.191406 4.816406 -7.191406 C 5.835938 -7.191406 6.597656 -6.328125 6.597656 -4.988281 L 6.597656 -4.96875 C 6.597656 -3.613281 5.835938 -2.75 4.816406 -2.75 Z M 4.816406 -2.75 "/></g></g></g><g fill="#cc0f35" fill-opacity="1"><g transform="translate(96.876478, 26.126648)"><g/></g></g><g fill="#cc0f35" fill-opacity="1"><g transform="translate(100.675972, 26.126648)"><g><path d="M 1.1875 0 L 3.648438 0 L 3.648438 -4.835938 L 7.550781 -4.835938 L 7.550781 0 L 10.007812 0 L 10.007812 -11.875 L 7.550781 -11.875 L 7.550781 -7.109375 L 3.648438 -7.109375 L 3.648438 -11.875 L 1.1875 -11.875 Z M 1.1875 0 "/></g></g></g><g fill="#cc0f35" fill-opacity="1"><g transform="translate(111.870895, 26.126648)"><g><path d="M 4.851562 0.203125 C 6.210938 0.203125 7.261719 -0.339844 8.09375 -1.253906 L 6.855469 -2.714844 C 6.277344 -2.15625 5.699219 -1.816406 4.953125 -1.816406 C 3.9375 -1.816406 3.1875 -2.441406 2.984375 -3.648438 L 8.414062 -3.648438 C 8.429688 -4.003906 8.429688 -4.292969 8.429688 -4.429688 C 8.429688 -7.140625 7.160156 -9.261719 4.5625 -9.261719 C 2.273438 -9.261719 0.59375 -7.292969 0.59375 -4.597656 L 0.59375 -4.445312 C 0.59375 -1.613281 2.441406 0.203125 4.851562 0.203125 Z M 2.96875 -5.242188 C 3.105469 -6.53125 3.679688 -7.277344 4.5625 -7.277344 C 5.460938 -7.277344 6.003906 -6.496094 6.105469 -5.242188 Z M 2.96875 -5.242188 "/></g></g></g><g fill="#cc0f35" fill-opacity="1"><g transform="translate(120.911645, 26.126648)"><g><path d="M 0.96875 0 L 3.375 0 L 3.375 -3.816406 C 3.375 -5.71875 4.257812 -6.632812 5.734375 -6.632812 L 5.835938 -6.632812 L 5.835938 -9.246094 C 4.546875 -9.3125 3.816406 -8.585938 3.375 -7.480469 L 3.375 -9.09375 L 0.96875 -9.09375 Z M 0.96875 0 "/></g></g></g><g fill="#cc0f35" fill-opacity="1"><g transform="translate(127.136695, 26.126648)"><g><path d="M 4.886719 0.203125 C 7.347656 0.203125 9.160156 -1.746094 9.160156 -4.445312 L 9.160156 -4.632812 C 9.160156 -7.347656 7.363281 -9.261719 4.902344 -9.261719 C 2.441406 -9.261719 0.609375 -7.3125 0.609375 -4.613281 L 0.609375 -4.429688 C 0.609375 -1.714844 2.425781 0.203125 4.886719 0.203125 Z M 4.902344 -1.882812 C 3.75 -1.882812 2.984375 -3.019531 2.984375 -4.480469 L 2.984375 -4.597656 C 2.984375 -6.074219 3.679688 -7.175781 4.886719 -7.175781 C 6.039062 -7.175781 6.785156 -6.054688 6.785156 -4.582031 L 6.785156 -4.460938 C 6.785156 -2.984375 6.089844 -1.882812 4.902344 -1.882812 Z M 4.902344 -1.882812 "/></g></g></g><g fill="#cc0f35" fill-opacity="1"><g transform="translate(136.923773, 26.126648)"><g><path d="M 4.851562 0.203125 C 6.210938 0.203125 7.261719 -0.339844 8.09375 -1.253906 L 6.855469 -2.714844 C 6.277344 -2.15625 5.699219 -1.816406 4.953125 -1.816406 C 3.9375 -1.816406 3.1875 -2.441406 2.984375 -3.648438 L 8.414062 -3.648438 C 8.429688 -4.003906 8.429688 -4.292969 8.429688 -4.429688 C 8.429688 -7.140625 7.160156 -9.261719 4.5625 -9.261719 C 2.273438 -9.261719 0.59375 -7.292969 0.59375 -4.597656 L 0.59375 -4.445312 C 0.59375 -1.613281 2.441406 0.203125 4.851562 0.203125 Z M 2.96875 -5.242188 C 3.105469 -6.53125 3.679688 -7.277344 4.5625 -7.277344 C 5.460938 -7.277344 6.003906 -6.496094 6.105469 -5.242188 Z M 2.96875 -5.242188 "/></g></g></g><g fill="#cc0f35" fill-opacity="1"><g transform="translate(145.964523, 26.126648)"><g><path d="M 3.714844 0.167969 C 5.53125 0.167969 6.921875 -0.78125 6.921875 -2.664062 L 6.921875 -2.699219 C 6.921875 -4.140625 5.835938 -4.800781 4.511719 -5.429688 C 3.546875 -5.871094 2.867188 -6.140625 2.867188 -6.617188 L 2.867188 -6.648438 C 2.867188 -7.007812 3.171875 -7.292969 3.75 -7.292969 C 4.394531 -7.292969 5.140625 -6.957031 5.820312 -6.515625 L 6.785156 -8.246094 C 5.871094 -8.890625 4.765625 -9.230469 3.78125 -9.230469 C 2.019531 -9.230469 0.660156 -8.195312 0.660156 -6.445312 L 0.660156 -6.414062 C 0.660156 -4.867188 1.765625 -4.222656 3.054688 -3.664062 C 4.039062 -3.242188 4.714844 -3.019531 4.714844 -2.492188 L 4.714844 -2.460938 C 4.714844 -2.085938 4.429688 -1.765625 3.75 -1.765625 C 3.003906 -1.765625 2.136719 -2.15625 1.324219 -2.78125 L 0.269531 -1.085938 C 1.375 -0.1875 2.648438 0.167969 3.714844 0.167969 Z M 3.714844 0.167969 "/></g></g></g></svg>